<svg width="36" height="27" viewBox="0 0 36 27" fill="none" xmlns="http://www.w3.org/2000/svg">
<path fill-rule="evenodd" clip-rule="evenodd" d="M16.447 6.9287C16.2653 7.77448 13.3773 8.06726 12.4079 8.3275C11.4183 8.58774 10.1863 8.99437 10.1863 10.2793C10.1863 11.5643 10.0248 11.4179 9.86321 12.2799C9.70164 13.1582 9.19675 13.8088 8.93421 14.5082C8.67166 15.2239 8.9746 15.7444 8.65147 16.2323C8.34853 16.7203 8.0254 16.6878 7.5205 17.1269C7.01561 17.5661 6.87424 17.7125 5.96543 18.9974C5.05662 20.2986 4.00644 20.7215 4.00644 20.7215C4.00644 20.7215 3.64292 20.4938 3.13802 20.4938C2.47156 20.4938 2.51196 20.4287 1.96667 20.7378C1.74452 20.8679 1.50217 20.8516 1.46178 20.998C1.42138 21.1281 1.48197 21.242 1.56276 21.2745C1.62334 21.3071 1.64354 21.3071 1.64354 21.3071C1.64354 21.3071 1.38099 21.5998 1.23962 21.8113C1.09825 22.0227 1.11845 22.2016 1.09825 22.2992C1.07806 22.3968 1.01747 22.4294 1.01747 22.5432C1.01747 22.6571 1.11845 22.7547 1.23962 22.7872C1.3406 22.8197 1.38099 22.8197 1.38099 22.8197C1.38099 22.8197 1.03767 23.0149 0.876099 23.1938C0.714533 23.389 0.775121 23.5517 0.876099 23.6492C0.977078 23.7306 1.15884 23.7143 1.28001 23.6492C1.38099 23.6004 1.44158 23.5516 1.44158 23.5516C1.44158 23.5516 1.3608 23.7143 1.52236 23.8444C1.68393 23.9745 1.96667 23.8119 2.10804 23.7306C2.24941 23.6492 2.20902 23.8282 1.98687 24.186C1.76471 24.5438 1.72432 25.2758 2.59274 25.8613C3.48135 26.4306 3.7439 26.4143 6.28856 26.2354C10.5095 25.9264 14.3265 25.6824 18.305 24.4788C22.2836 25.6661 26.0804 25.9101 30.3215 26.2354C32.8662 26.4306 33.1489 26.4306 34.0173 25.8613C34.9059 25.292 34.8252 24.5601 34.6232 24.186C34.4212 23.8282 34.3809 23.633 34.502 23.7306C34.6434 23.8119 34.9261 23.9745 35.0877 23.8444C35.2493 23.7143 35.1685 23.5516 35.1685 23.5516C35.1685 23.5516 35.2291 23.5842 35.3301 23.6492C35.431 23.698 35.633 23.7306 35.734 23.6492C35.8349 23.5679 35.8955 23.389 35.734 23.1938C35.5724 22.9986 35.2291 22.8197 35.2291 22.8197C35.2291 22.8197 35.2695 22.8197 35.3704 22.7872C35.4714 22.7547 35.5926 22.6408 35.5926 22.5432C35.5926 22.4456 35.5118 22.4131 35.5118 22.2992C35.5118 22.1854 35.5118 22.0227 35.3704 21.8113C35.2291 21.5998 34.9665 21.3071 34.9665 21.3071C34.9665 21.3071 34.9665 21.3071 35.0473 21.2745C35.1079 21.242 35.1887 21.1281 35.1483 20.998C35.1079 20.8679 34.8656 20.8679 34.6434 20.7378C34.0779 20.4287 34.1385 20.4938 33.472 20.4938C32.9672 20.4938 32.6036 20.7215 32.6036 20.7215C32.6036 20.7215 31.5535 20.2986 30.6446 18.9974C29.7358 17.6962 29.5945 17.5661 29.0896 17.1269C28.5847 16.6878 28.2615 16.7203 27.9586 16.2323C27.6557 15.7444 27.9586 15.2239 27.6759 14.5082C27.4133 13.7926 26.9084 13.1582 26.7469 12.2799C26.5853 11.4016 26.4035 11.548 26.4237 10.2793C26.4237 9.01063 25.1918 8.58774 24.2022 8.3275C23.2126 8.06726 20.3246 7.77448 20.163 6.9287C20.0015 6.11544 20.264 5.8552 20.6477 5.12327C20.7285 4.96062 20.7487 5.17206 20.9709 5.02568C21.193 4.86303 21.1324 4.74917 21.4354 4.65158C21.7383 4.53773 21.7787 4.27748 21.7787 4.1311C21.7787 3.98471 22.122 3.85459 22.0211 3.57808C21.9403 3.30158 21.7585 3.26905 21.5767 3.31784C21.4152 3.35037 21.3748 3.4317 21.3748 3.4317C21.3748 3.4317 21.395 3.3829 21.4152 3.28531C21.496 3.15519 21.5566 3.02507 21.5767 2.94374C21.6171 2.79736 21.8191 2.3582 21.2536 1.3335C20.6679 0.325059 20.7285 0.650362 20.466 0.39012C20.2034 0.129878 19.7793 0.0648175 19.2744 0.0160221C18.7493 -0.0327733 18.6484 0.0485523 18.1031 0.0160221C17.5578 -0.0165081 17.4366 -0.0165081 17.0529 0.211204C16.6894 0.42265 16.7096 0.536506 16.7096 0.536506C16.7096 0.536506 16.548 0.487711 16.3662 0.45518C16.1643 0.42265 15.8815 0.503976 15.6594 0.845543C15.4372 1.18711 15.5382 1.26844 15.2757 1.70759C15.0131 2.14675 14.9525 2.65097 15.1343 3.04133C15.1949 3.15519 15.2353 3.23652 15.2757 3.28531C15.2959 3.36664 15.3161 3.41543 15.3161 3.41543C15.3161 3.41543 15.2757 3.35037 15.1141 3.30158C14.9525 3.26905 14.7708 3.30158 14.6698 3.56182C14.589 3.83833 14.9323 3.98471 14.9122 4.11483C14.9122 4.24495 14.9525 4.52146 15.2555 4.63532C15.5584 4.74917 15.4978 4.86303 15.72 5.00941C15.9421 5.17206 15.9421 4.94435 16.0431 5.107C16.4066 5.82267 16.6894 6.13171 16.5278 6.91243L16.447 6.9287ZM7.23776 21.2257C7.23776 21.2257 7.19737 21.1444 7.21757 21.0794C7.21757 20.6727 7.92442 20.2661 8.53029 20.1685C9.11597 20.0709 9.4189 20.1685 9.68145 20.0546C9.96419 19.9408 10.4691 19.4528 11.5193 19.7131C11.7616 19.7781 11.9434 19.8269 12.1049 19.892C12.2665 19.8595 12.4281 19.8107 12.5896 19.7781C12.5896 19.7619 12.5492 19.7456 12.5291 19.7131C12.4079 19.5992 12.8522 19.6155 13.0541 19.4691C13.1551 19.3878 13.2561 19.3878 13.3167 19.3878C13.3167 19.3552 13.3571 19.3065 13.3773 19.2577C13.3167 19.1113 13.1753 19.1763 13.2965 19.0299C13.4177 18.8836 13.3369 18.9161 13.3975 18.6396C13.4581 18.3793 13.2763 18.298 13.3571 18.1354C13.3571 18.1028 13.3975 18.0866 13.4177 18.0703C13.2965 16.883 12.8522 15.2402 12.2665 14.3293C12.2665 14.3293 12.0847 15.045 11.7616 15.5167C11.4385 15.9721 11.2567 16.5089 11.1961 16.8016C10.8932 18.1679 10.974 17.6311 9.98439 18.786C9.23714 19.6806 7.45992 20.4938 6.22797 21.3071C4.99603 22.1203 5.27877 22.0553 5.27877 22.0553C5.27877 22.0553 5.96543 21.73 7.25796 21.2095L7.23776 21.2257ZM29.3117 21.2257C29.3117 21.2257 29.3521 21.1444 29.3319 21.0794C29.3319 20.6727 28.6251 20.2661 28.0192 20.1685C27.4335 20.0709 27.1306 20.1685 26.868 20.0546C26.5853 19.9408 26.0804 19.4528 25.0302 19.7131C24.7879 19.7781 24.6061 19.8269 24.4445 19.892C24.2628 19.8595 24.1012 19.8107 23.9397 19.7781C23.9598 19.7456 23.98 19.7293 24.0204 19.6968C24.1416 19.583 23.6973 19.5992 23.4953 19.4528C23.3944 19.3715 23.2732 19.3715 23.2126 19.3715C23.2126 19.339 23.1722 19.3065 23.1722 19.2577C23.2328 19.1113 23.3742 19.1601 23.253 19.0137C23.1318 18.8673 23.2126 18.8998 23.152 18.6233C23.0914 18.3631 23.2732 18.2818 23.1924 18.1191C23.1924 18.0866 23.152 18.0703 23.1318 18.054C23.253 16.8667 23.6973 15.2402 24.283 14.3293C24.283 14.3293 24.4647 15.045 24.7879 15.5167C25.111 15.9721 25.2928 16.5089 25.3534 16.8016C25.6563 18.1679 25.5755 17.6311 26.5651 18.786C27.3123 19.6806 29.0896 20.4938 30.3215 21.3071C31.5535 22.1203 31.2707 22.0553 31.2707 22.0553C31.2707 22.0553 30.5841 21.73 29.2915 21.2095L29.3117 21.2257Z" fill="black"/>
</svg>
