<svg width="333" height="306" viewBox="0 0 333 306" fill="none" xmlns="http://www.w3.org/2000/svg">
<g filter="url(#filter0_d_319_4304)">
<path d="M53.339 86.01C63.0191 86.01 70.8638 78.1653 70.8638 68.4852C70.8638 58.8051 63.0191 50.9605 53.339 50.9605H51.1935V86.01H53.339Z" fill="#E0E0E0"/>
<path d="M51.1852 86.01C60.8638 86.01 68.7099 78.1639 68.7099 68.4852C68.7099 58.8066 60.8638 50.9605 51.1852 50.9605C41.5065 50.9605 33.6604 58.8066 33.6604 68.4852C33.6604 78.1639 41.5065 86.01 51.1852 86.01Z" fill="#F5F5F5"/>
<path d="M50.3804 70.6895C37.4485 70.6895 26.9219 60.1629 26.9219 47.2309V33.2178C26.9219 32.0026 27.9108 31.0136 29.1261 31.0136C30.3413 31.0136 31.3303 32.0026 31.3303 33.2178V47.2309C31.3303 57.7408 39.879 66.281 50.3804 66.281C51.5957 66.281 52.5846 67.27 52.5846 68.4852C52.5846 69.7005 51.5957 70.6895 50.3804 70.6895Z" fill="#E0E0E0"/>
<path d="M9.63199 45.5547H48.6206C51.2941 45.5547 53.2385 43.0237 52.5597 40.4423L49.1737 27.6696C48.7044 25.8844 47.0869 24.644 45.2346 24.644H13.0095C11.1657 24.644 9.54818 25.8844 9.07046 27.6696L5.68452 40.4423C4.99727 43.0237 6.95005 45.5547 9.62361 45.5547H9.63199Z" fill="#F5F5F5"/>
<path d="M300.831 86.01C310.511 86.01 318.356 78.1653 318.356 68.4852C318.356 58.8051 310.511 50.9605 300.831 50.9605H298.686V86.01H300.831Z" fill="#E0E0E0"/>
<path d="M298.677 86.01C308.356 86.01 316.202 78.1639 316.202 68.4852C316.202 58.8066 308.356 50.9605 298.677 50.9605C288.998 50.9605 281.152 58.8066 281.152 68.4852C281.152 78.1639 288.998 86.01 298.677 86.01Z" fill="#F5F5F5"/>
<path d="M297.872 70.6895C284.94 70.6895 274.414 60.1629 274.414 47.2309V33.2178C274.414 32.0026 275.403 31.0136 276.618 31.0136C277.833 31.0136 278.822 32.0026 278.822 33.2178V47.2309C278.822 57.7408 287.371 66.281 297.872 66.281C299.088 66.281 300.077 67.27 300.077 68.4852C300.077 69.7005 299.088 70.6895 297.872 70.6895Z" fill="#E0E0E0"/>
<path d="M257.124 45.5547H296.113C298.786 45.5547 300.73 43.0237 300.052 40.4423L296.666 27.6696C296.196 25.8844 294.579 24.644 292.727 24.644H260.501C258.658 24.644 257.04 25.8844 256.562 27.6696L253.176 40.4423C252.489 43.0237 254.442 45.5547 257.116 45.5547H257.124Z" fill="#F5F5F5"/>
<path d="M69.2631 204.375H82.0106V154.986H69.2631V204.375Z" fill="#E6E6E6"/>
<path d="M34.7079 204.375H77.007L83.3933 146.571H41.0942L34.7079 204.375Z" fill="#F0F0F0"/>
<path d="M30.1233 204.375H73.822L80.2084 146.571H36.518L30.1233 204.375Z" fill="#F5F5F5"/>
<path d="M70.6627 199.825L76.0433 151.122H39.6696L34.2889 199.825H70.6627Z" fill="white"/>
<path d="M63.1535 188.016L63.3714 186.029C64.7207 173.81 57.094 162.923 47.1876 162.923L46.9697 164.909C45.6203 177.129 53.2471 188.016 63.1535 188.016Z" fill="#F5F5F5"/>
<path d="M6.49767 260.151H44.0782L44.0782 204.375H6.49767L6.49767 260.151Z" fill="#E6E6E6"/>
<path d="M10.269 260.151H6.48914V249.398H14.2332L10.269 260.151Z" fill="#F0F0F0"/>
<path d="M111.822 260.151H149.403V204.375H111.822V260.151Z" fill="#E6E6E6"/>
<path d="M6.48955 253.547H115.116V204.375H6.48955V253.547Z" fill="#F0F0F0"/>
<path d="M111.336 260.151H115.116V249.398H107.372L111.336 260.151Z" fill="#F0F0F0"/>
<path d="M9.42268 227.298H112.183V207.451H9.42268V227.298Z" fill="#E6E6E6"/>
<path d="M53.951 220.392H67.654C73.6046 220.392 79.2953 217.944 83.3936 213.62H38.2114C42.3098 217.944 48.0005 220.392 53.951 220.392Z" fill="#F0F0F0"/>
<path d="M9.42268 250.345H112.183V230.499H9.42268V250.345Z" fill="#E6E6E6"/>
<path d="M53.951 243.439H67.654C73.6046 243.439 79.2953 240.992 83.3936 236.668H38.2114C42.3098 240.992 48.0005 243.439 53.951 243.439Z" fill="#F0F0F0"/>
<path d="M108.235 202.104H109.207C109.199 200.101 109.207 195.031 109.308 183.406C109.484 162.336 109.819 161.045 109.819 161.045L107.506 170.776C106.039 181.545 107.933 192.374 108.235 202.104Z" fill="#E6E6E6"/>
<path d="M106.316 169.326C102.988 165.362 95.8812 164.205 88.6064 163.216C85.7485 162.831 96.1158 169.359 101.178 173.994C105.117 177.598 107.631 178.595 108.713 182.182C109.274 177.707 109.182 172.737 106.316 169.318V169.326Z" fill="#E6E6E6"/>
<path d="M110.732 176.408C114.06 172.444 121.167 171.287 128.441 170.298C131.299 169.913 120.932 176.441 115.87 181.076C111.931 184.68 109.417 185.677 108.335 189.264C107.774 184.789 107.866 179.819 110.732 176.399V176.408Z" fill="#E6E6E6"/>
<path d="M109.308 160.115C111.805 155.38 118.083 150.913 125.123 149.22C127.888 148.558 118.719 157.97 115.233 164.046C112.526 168.764 108.93 174.304 108.377 178.285C107.531 170.399 106.818 164.859 109.308 160.115Z" fill="#E6E6E6"/>
<path d="M109.006 204.375C106.031 204.375 103.575 202.884 103.407 200.981L102.913 197.721H115.099L114.605 200.981C114.437 202.884 111.981 204.375 109.006 204.375Z" fill="#F0F0F0"/>
<path d="M115.895 198.978H102.125L101.731 195.349H116.289L115.895 198.978Z" fill="#F0F0F0"/>
<path d="M99.0658 129.675L233.338 129.675L233.338 7.20307L99.0658 7.20307L99.0658 129.675Z" fill="#E6E6E6"/>
<path d="M96.0483 129.675L232.022 129.675L232.022 7.20307L96.0483 7.20307L96.0483 129.675Z" fill="#F5F5F5"/>
<path d="M226.6 124.194V12.6927L101.471 12.6927V124.194L226.6 124.194Z" fill="#FAFAFA"/>
<path d="M211.246 124.186L161.999 12.6927H145.271L194.517 124.186H211.246Z" fill="white"/>
<path d="M189.774 124.186L140.527 12.6927H129.011L178.258 124.186H189.774Z" fill="white"/>
<path d="M147.936 124.186V12.6843H141.465V124.186H147.936Z" fill="#E6E6E6"/>
<path d="M190.947 124.186V12.6843H184.477V124.186H190.947Z" fill="#E6E6E6"/>
<path d="M146.762 127.672V8.61108H138.582V127.672H146.762Z" fill="#F5F5F5"/>
<path d="M189.774 127.672V8.61111H181.594V127.672H189.774Z" fill="#F5F5F5"/>
<path d="M102.041 124.186V12.6843H101.463V124.186H102.041Z" fill="#E6E6E6"/>
<path d="M93.769 0.14624H239.239C239.624 0.14624 239.934 0.46472 239.934 0.841867C239.934 1.22739 239.616 1.53749 239.239 1.53749H93.769C93.3835 1.53749 93.0734 1.21901 93.0734 0.841867C93.0734 0.456339 93.3918 0.14624 93.769 0.14624Z" fill="#E6E6E6"/>
<path d="M233.339 4.76419C233.858 4.76419 234.286 4.33675 234.286 3.81713V1.78892C234.286 1.26929 233.858 0.841858 233.339 0.841858C232.819 0.841858 232.392 1.26929 232.392 1.78892V3.81713C232.392 4.33675 232.819 4.76419 233.339 4.76419Z" fill="#E6E6E6"/>
<path d="M104.312 4.76419C104.832 4.76419 105.259 4.33675 105.259 3.81713V1.78892C105.259 1.26929 104.832 0.841858 104.312 0.841858C103.793 0.841858 103.365 1.26929 103.365 1.78892V3.81713C103.365 4.33675 103.793 4.76419 104.312 4.76419Z" fill="#E6E6E6"/>
<path opacity="0.6" d="M93.9868 96.7629L229.869 96.7629V0.85025L93.9868 0.85025V96.7629Z" fill="#E0E0E0"/>
<path d="M242.172 157.542H218.739C216.248 157.542 214.23 159.561 214.23 162.051V172.896C214.23 175.386 216.248 177.405 218.739 177.405H242.172C244.662 177.405 246.681 175.386 246.681 172.896V162.051C246.681 159.561 244.662 157.542 242.172 157.542Z" fill="#FAFAFA"/>
<path d="M245.164 153.871H215.747C214.909 153.871 214.23 154.55 214.23 155.388V156.612C214.23 157.45 214.909 158.129 215.747 158.129H245.164C246.002 158.129 246.681 157.45 246.681 156.612V155.388C246.681 154.55 246.002 153.871 245.164 153.871Z" fill="#E6E6E6"/>
<path d="M214.708 199.431C214.708 199.431 215.135 213.393 231.411 213.393C247.687 213.393 248.115 199.431 248.115 199.431H214.716H214.708Z" fill="#F0F0F0"/>
<path d="M251.819 199.431C251.819 199.431 252.246 213.393 268.522 213.393C284.798 213.393 285.226 199.431 285.226 199.431H251.827H251.819Z" fill="#F0F0F0"/>
<path d="M277.163 148.541H244.98C241.555 148.541 238.778 151.318 238.778 154.743V171.203C238.778 174.629 241.555 177.405 244.98 177.405H277.163C280.589 177.405 283.365 174.629 283.365 171.203V154.743C283.365 151.318 280.589 148.541 277.163 148.541Z" fill="#F0F0F0"/>
<path d="M281.287 143.504H240.857C239.709 143.504 238.778 144.435 238.778 145.582V147.275C238.778 148.423 239.709 149.354 240.857 149.354H281.287C282.435 149.354 283.365 148.423 283.365 147.275V145.582C283.365 144.435 282.435 143.504 281.287 143.504Z" fill="#F5F5F5"/>
<path d="M202.446 260.151H206.67V190.89H202.446V260.151Z" fill="#E6E6E6"/>
<path d="M324.416 177.405H301.544V190.882H324.416V177.405Z" fill="#E6E6E6"/>
<path d="M187.821 190.882H301.535V177.405H187.821V190.882Z" fill="#F5F5F5"/>
<path d="M324.416 213.402H301.544V226.879H324.416V213.402Z" fill="#E6E6E6"/>
<path d="M187.821 226.87H301.535V213.393H187.821V226.87Z" fill="#F5F5F5"/>
<path d="M316.16 260.151H320.384V190.89H316.16V260.151Z" fill="#E6E6E6"/>
<path d="M297.319 260.151H301.543V190.89H297.319V260.151Z" fill="#F5F5F5"/>
<path d="M187.822 260.151H192.046V190.89H187.822V260.151Z" fill="#F5F5F5"/>
<path d="M166.5 298C256.246 298 329 293.752 329 288.513C329 283.273 256.246 279.025 166.5 279.025C76.7537 279.025 4 283.273 4 288.513C4 293.752 76.7537 298 166.5 298Z" fill="#F5F5F5"/>
<path d="M175.225 245.979H68.3078C64.771 245.979 61.7622 243.113 61.5778 239.584L52.0067 53.9022C51.8223 50.3738 54.5377 47.5075 58.0745 47.5075H164.991C168.528 47.5075 171.537 50.3738 171.721 53.9022L181.293 239.584C181.477 243.121 178.762 245.979 175.225 245.979Z" fill="#787A7F"/>
<path opacity="0.8" d="M175.225 245.979H68.3078C64.771 245.979 61.7622 243.113 61.5778 239.584L52.0067 53.9022C51.8223 50.3738 54.5377 47.5075 58.0745 47.5075H164.991C168.528 47.5075 171.537 50.3738 171.721 53.9022L181.293 239.584C181.477 243.121 178.762 245.979 175.225 245.979Z" fill="black"/>
<path d="M154.448 41.448H142.622V42.2861H154.448V41.448Z" fill="#ABAEB6"/>
<path d="M138.524 41.448H134.191V42.2861H138.524V41.448Z" fill="#ABAEB6"/>
<path d="M179.826 234.204H77.5686C74.191 234.204 71.308 231.463 71.132 228.085L61.9799 50.4995C61.8039 47.122 64.402 44.3814 67.7796 44.3814H170.037C173.414 44.3814 176.297 47.122 176.473 50.4995L185.625 228.085C185.801 231.463 183.203 234.204 179.826 234.204Z" fill="white"/>
<path d="M179.826 230.122H77.5686C76.3785 230.122 75.2806 229.074 75.2135 227.884L66.0614 50.2984C66.0279 49.653 66.2877 49.234 66.514 48.9909C66.7403 48.7563 67.1426 48.4713 67.7795 48.4713H170.037C171.227 48.4713 172.325 49.5189 172.392 50.7174L181.544 228.303C181.577 228.949 181.317 229.368 181.091 229.611C180.865 229.845 180.463 230.13 179.826 230.13V230.122ZM67.7879 48.6808C67.218 48.6808 66.866 48.9239 66.6732 49.1334C66.4721 49.3429 66.2458 49.7117 66.2793 50.2816L75.4314 227.867C75.4901 228.957 76.4874 229.912 77.577 229.912H179.834C180.404 229.912 180.756 229.669 180.949 229.46C181.15 229.25 181.376 228.882 181.343 228.312L172.191 50.7258C172.132 49.6363 171.134 48.6808 170.045 48.6808H67.7879Z" fill="white"/>
<path opacity="0.3" d="M144.066 113.194C155.696 101.26 154.938 81.6605 142.374 69.4171C129.811 57.1736 110.198 56.9228 98.5683 68.8568C86.9387 80.7908 87.696 100.39 100.26 112.634C112.824 124.877 132.436 125.128 144.066 113.194Z" fill="black"/>
<path d="M146.36 91.0303C146.587 95.3549 145.698 99.4197 143.947 102.956C140.125 110.759 132.121 116.073 122.6 116.073C113.079 116.073 104.531 110.768 99.9043 102.956C97.7923 99.4113 96.4849 95.3549 96.267 91.0303C95.5546 77.1932 106.19 65.9877 120.019 65.9877C133.848 65.9877 145.64 77.2015 146.352 91.0303H146.36Z" fill="white"/>
<path d="M143.955 102.965C140.133 110.768 132.129 116.081 122.609 116.081C113.088 116.081 104.539 110.776 99.9127 102.965C105.997 98.7492 113.44 96.2935 121.586 96.2935C129.732 96.2935 137.426 98.7492 143.947 102.965H143.955Z" fill="#D4D5DC"/>
<path d="M129.073 90.4475C133.263 86.1479 132.988 79.0852 128.46 74.6724C123.932 70.2596 116.864 70.1678 112.674 74.4673C108.485 78.7669 108.759 85.8296 113.287 90.2424C117.815 94.6552 124.883 94.7471 129.073 90.4475Z" fill="#D4D5DC"/>
<path d="M165.167 165.127H85.1032C83.67 165.127 82.4547 163.97 82.3793 162.537L81.7759 150.77C81.7005 149.337 82.7984 148.181 84.2315 148.181H164.296C165.729 148.181 166.944 149.337 167.019 150.77L167.623 162.537C167.698 163.97 166.6 165.127 165.167 165.127Z" fill="#D4D5DC"/>
<path d="M166.634 193.48H86.5697C85.1366 193.48 83.9213 192.323 83.8459 190.89L83.2424 179.123C83.167 177.69 84.2649 176.534 85.6981 176.534H165.762C167.195 176.534 168.411 177.69 168.486 179.123L169.089 190.89C169.165 192.323 168.067 193.48 166.634 193.48Z" fill="#D4D5DC"/>
<path d="M95.2865 156.654C95.3703 158.238 94.1551 159.52 92.5711 159.52C90.987 159.52 89.6377 158.238 89.5539 156.654C89.4701 155.07 90.6853 153.787 92.2693 153.787C93.8534 153.787 95.2027 155.07 95.2865 156.654Z" fill="#263238"/>
<path d="M104.087 156.654C104.17 158.238 102.955 159.52 101.371 159.52C99.7871 159.52 98.4378 158.238 98.3539 156.654C98.2701 155.07 99.4854 153.787 101.069 153.787C102.653 153.787 104.003 155.07 104.087 156.654Z" fill="#263238"/>
<path d="M112.895 156.654C112.979 158.238 111.764 159.52 110.18 159.52C108.596 159.52 107.246 158.238 107.163 156.654C107.079 155.07 108.294 153.787 109.878 153.787C111.462 153.787 112.811 155.07 112.895 156.654Z" fill="#263238"/>
<path d="M121.703 156.654C121.787 158.238 120.572 159.52 118.988 159.52C117.404 159.52 116.055 158.238 115.971 156.654C115.887 155.07 117.102 153.787 118.686 153.787C120.27 153.787 121.62 155.07 121.703 156.654Z" fill="#263238"/>
<path d="M96.7443 185.015C96.8281 186.599 95.6129 187.882 94.0288 187.882C92.4448 187.882 91.0955 186.599 91.0117 185.015C90.9278 183.431 92.1431 182.149 93.7271 182.149C95.3111 182.149 96.6605 183.431 96.7443 185.015Z" fill="#263238"/>
<path d="M105.553 185.015C105.637 186.599 104.421 187.882 102.837 187.882C101.253 187.882 99.9041 186.599 99.8202 185.015C99.7364 183.431 100.952 182.149 102.536 182.149C104.12 182.149 105.469 183.431 105.553 185.015Z" fill="#263238"/>
<path d="M114.362 185.015C114.446 186.599 113.231 187.882 111.647 187.882C110.062 187.882 108.713 186.599 108.629 185.015C108.546 183.431 109.761 182.149 111.345 182.149C112.929 182.149 114.278 183.431 114.362 185.015Z" fill="#263238"/>
<path d="M123.162 185.015C123.245 186.599 122.03 187.882 120.446 187.882C118.862 187.882 117.513 186.599 117.429 185.015C117.345 183.431 118.56 182.149 120.144 182.149C121.728 182.149 123.078 183.431 123.162 185.015Z" fill="#263238"/>
<path d="M131.97 185.015C132.054 186.599 130.839 187.882 129.255 187.882C127.671 187.882 126.321 186.599 126.237 185.015C126.154 183.431 127.369 182.149 128.953 182.149C130.537 182.149 131.886 183.431 131.97 185.015Z" fill="#263238"/>
<path d="M140.779 185.015C140.863 186.599 139.647 187.882 138.063 187.882C136.479 187.882 135.13 186.599 135.046 185.015C134.962 183.431 136.178 182.149 137.762 182.149C139.346 182.149 140.695 183.431 140.779 185.015Z" fill="#263238"/>
<rect x="103.285" y="134.89" width="39.0047" height="7.09176" rx="1" fill="black"/>
<rect x="98.5568" y="206.989" width="57.916" height="14.1835" rx="3" fill="black"/>
<path d="M236.088 87.6862C236.297 87.9963 236.406 88.1639 236.541 88.3902L236.918 89.0188C237.161 89.4295 237.37 89.8485 237.588 90.2592C238.007 91.0889 238.401 91.9186 238.762 92.7567C239.482 94.4329 240.069 96.1427 240.58 97.8692C241.611 101.314 242.24 104.842 242.567 108.379L242.634 109.041C242.642 109.133 242.65 109.284 242.659 109.443L242.675 109.896C242.684 110.491 242.659 111.078 242.575 111.639C242.416 112.762 242.114 113.802 241.745 114.757C240.991 116.668 239.96 118.294 238.845 119.769C236.574 122.711 233.993 125.066 231.043 127.153L228.738 124.445C230.808 122.048 232.819 119.392 234.303 116.743C235.057 115.419 235.644 114.061 236.004 112.787C236.172 112.15 236.264 111.539 236.281 110.994C236.297 110.717 236.281 110.457 236.256 110.214L236.23 110.038C236.23 109.988 236.222 109.921 236.197 109.812L236.088 109.225C235.543 106.083 234.789 102.99 233.808 100.006C233.331 98.5061 232.727 97.0646 232.124 95.6398C231.822 94.9274 231.495 94.2318 231.16 93.5613L230.64 92.5807L230.38 92.1114L230.171 91.7426L236.105 87.703L236.088 87.6862Z" fill="#FFA488"/>
<path d="M228.268 127.203L231.302 133.614L233.708 128.2C233.708 128.2 231.579 123.507 228.687 123.934L228.268 127.211V127.203Z" fill="#FFA488"/>
<path d="M233.473 133.933L235.886 129.977L233.707 128.192L231.302 133.614L233.473 133.933Z" fill="#FFA488"/>
<path d="M219.828 281.783C220.474 281.783 221.186 281.649 221.681 281.531C221.748 281.515 221.798 281.464 221.806 281.397C221.815 281.33 221.79 281.263 221.731 281.23C221.488 281.07 219.359 279.696 218.538 280.065C218.412 280.123 218.244 280.249 218.211 280.534C218.161 280.903 218.253 281.204 218.488 281.414C218.789 281.691 219.284 281.783 219.828 281.783ZM221.211 281.297C219.988 281.54 219.074 281.498 218.714 281.171C218.563 281.037 218.504 280.836 218.546 280.576C218.563 280.433 218.63 280.391 218.689 280.366C219.116 280.165 220.348 280.769 221.22 281.288L221.211 281.297Z" fill="#407BFF"/>
<path d="M221.648 281.54C221.648 281.54 221.706 281.54 221.731 281.515C221.782 281.481 221.815 281.431 221.815 281.372C221.815 281.288 221.807 279.268 221.044 278.59C220.843 278.414 220.6 278.338 220.34 278.363C219.921 278.414 219.812 278.673 219.779 278.824C219.619 279.612 220.893 281.129 221.564 281.506C221.589 281.523 221.614 281.531 221.648 281.531V281.54ZM220.449 278.698C220.583 278.698 220.709 278.749 220.818 278.841C221.271 279.243 221.43 280.383 221.472 281.054C220.801 280.517 220.005 279.386 220.106 278.9C220.122 278.824 220.164 278.724 220.382 278.698C220.407 278.698 220.432 278.698 220.458 278.698H220.449Z" fill="#407BFF"/>
<path d="M211.917 278.363C211.959 278.321 211.968 278.263 211.951 278.204C211.934 278.137 211.867 278.087 211.8 278.087C211.448 278.07 208.439 277.944 207.76 278.682C207.744 278.699 207.735 278.715 207.718 278.732C207.61 278.883 207.584 279.067 207.643 279.252C207.752 279.562 207.962 279.771 208.255 279.863C209.227 280.165 210.945 279.076 211.884 278.397C211.892 278.397 211.901 278.38 211.909 278.372L211.917 278.363ZM208.012 278.891C208.389 278.489 210.04 278.38 211.289 278.397C209.981 279.285 208.909 279.704 208.355 279.537C208.163 279.478 208.037 279.344 207.962 279.134C207.928 279.051 207.936 278.983 207.987 278.925C207.987 278.916 208.003 278.908 208.012 278.9V278.891Z" fill="#407BFF"/>
<path d="M211.917 278.363C211.917 278.363 211.934 278.346 211.942 278.338C211.976 278.288 211.976 278.221 211.942 278.17C211.901 278.103 210.97 276.452 209.856 276.151C209.52 276.058 209.193 276.1 208.9 276.276C208.498 276.511 208.481 276.779 208.531 276.964C208.749 277.743 210.886 278.422 211.8 278.422C211.85 278.422 211.892 278.405 211.917 278.372V278.363ZM208.908 276.687C208.908 276.687 208.992 276.612 209.068 276.561C209.286 276.436 209.512 276.402 209.772 276.469C210.501 276.662 211.188 277.601 211.49 278.062C210.501 277.944 208.984 277.332 208.85 276.871C208.85 276.846 208.825 276.771 208.908 276.679V276.687Z" fill="#407BFF"/>
<path d="M221.144 63.1382C220.331 67.3035 218.496 76.3886 221.404 79.1711C221.404 79.1711 220.264 83.3951 212.529 83.3951C204.013 83.3951 208.464 79.1711 208.464 79.1711C213.107 78.0648 212.989 74.6118 212.177 71.3767L221.144 63.1382Z" fill="#FFA488"/>
<path d="M206.964 53.3156C207.014 53.3156 207.064 53.3072 207.114 53.282C207.282 53.1982 207.349 52.9971 207.265 52.8378C206.444 51.1952 204.919 51.0024 204.852 50.994C204.667 50.9689 204.508 51.103 204.483 51.2874C204.466 51.4717 204.592 51.631 204.776 51.6561C204.826 51.6561 206.016 51.8237 206.67 53.1396C206.729 53.2569 206.846 53.3239 206.964 53.3239V53.3156Z" fill="#263238"/>
<path d="M204.425 56.9529C204.425 56.9529 203.167 59.2577 201.977 60.2886C202.631 61.0764 203.93 60.9088 203.93 60.9088L204.425 56.9445V56.9529Z" fill="#CC836D"/>
<path d="M205.045 56.0478C204.977 56.6093 204.617 57.0284 204.257 56.9865C203.888 56.9446 203.645 56.4501 203.72 55.8885C203.796 55.327 204.148 54.908 204.508 54.9499C204.877 54.9918 205.12 55.4862 205.045 56.0478Z" fill="#263238"/>
<path d="M204.667 55.0002L203.368 54.447C203.368 54.447 203.93 55.5868 204.667 55.0002Z" fill="#263238"/>
<path d="M219.317 276.771L212.478 278.372L208.321 262.649L215.16 261.048L219.317 276.771Z" fill="#FFA488"/>
<path d="M229.811 281.372H222.787L223.34 265.113H230.364L229.811 281.372Z" fill="#FFA488"/>
<path d="M222.234 280.559H230.121C230.406 280.559 230.64 280.76 230.682 281.037L231.579 287.281C231.671 287.926 231.118 288.538 230.456 288.529C227.707 288.479 226.383 288.32 222.913 288.32C220.776 288.32 217.658 288.538 214.716 288.538C211.775 288.538 211.615 285.621 212.839 285.361C218.337 284.18 219.209 282.545 221.061 280.987C221.396 280.71 221.815 280.551 222.234 280.551V280.559Z" fill="#263238"/>
<path d="M211.875 277.324L219.041 274.03C219.301 273.913 219.594 273.997 219.753 274.231L223.181 279.528C223.533 280.081 223.29 280.869 222.678 281.129C220.164 282.235 218.89 282.646 215.739 284.096C213.803 284.984 209.88 287.038 207.207 288.261C204.592 289.468 203.167 286.912 204.173 286.158C208.673 282.78 209.964 280.4 210.995 278.204C211.179 277.81 211.498 277.5 211.883 277.324H211.875Z" fill="#263238"/>
<path opacity="0.2" d="M208.33 262.649L210.551 271.072L217.306 269.161L215.169 261.056L208.33 262.649Z" fill="black"/>
<path opacity="0.2" d="M230.364 265.121H223.34L223.064 273.502H230.087L230.364 265.121Z" fill="black"/>
<path d="M233.515 80.7635C236.432 81.4004 239.55 91.8935 239.55 91.8935L231.303 100.66C231.303 100.66 224.464 90.804 225.855 87.1834C227.305 83.4119 230.071 80.0092 233.515 80.7635Z" fill="#E4E5FA"/>
<path opacity="0.4" d="M228.889 87.4432C227.414 86.0938 226.417 86.4961 225.738 87.5689C225.067 90.6866 229.04 97.2155 230.641 99.6879C231.378 96.7377 232.225 90.5106 228.889 87.4432Z" fill="#C4BAF9"/>
<path d="M196.597 80.9646C196.597 80.9646 193.253 82.1463 199.949 123.331H228.461C227.984 111.723 227.967 104.574 233.515 80.7551C233.515 80.7551 227.539 79.456 221.404 79.1627C216.61 78.928 212.68 78.7772 208.456 79.1627C202.899 79.6739 196.588 80.9646 196.588 80.9646H196.597Z" fill="#E4E5FA"/>
<path opacity="0.4" d="M196.337 96.7796C196.521 98.7827 196.764 101.037 197.083 103.585C199.421 101.481 201.323 95.4973 200.628 92.0108C198.993 93.2261 197.485 95.1034 196.337 96.7796Z" fill="#C4BAF9"/>
<path d="M199.388 90.5358C197.837 94.4497 196.127 98.1793 194.208 101.9C192.289 105.613 190.236 109.259 187.512 112.796L186.975 113.458L186.707 113.785C186.615 113.894 186.539 113.994 186.397 114.145C185.877 114.715 185.316 115.21 184.738 115.62C183.581 116.442 182.391 116.97 181.234 117.372C178.921 118.151 176.675 118.428 174.496 118.562C170.113 118.738 165.972 118.336 161.79 117.431L162.251 113.902C164.179 113.91 166.199 113.869 168.143 113.743C170.104 113.642 172.04 113.433 173.901 113.098C175.753 112.787 177.547 112.318 179.047 111.664C179.784 111.338 180.43 110.935 180.899 110.533C181.134 110.332 181.326 110.131 181.469 109.929C181.502 109.904 181.578 109.787 181.637 109.703L181.829 109.427L182.223 108.873C184.285 105.823 186.104 102.269 187.83 98.724C189.532 95.1621 191.174 91.4661 192.708 87.8538L199.371 90.5274L199.388 90.5358Z" fill="#FFA488"/>
<path d="M196.596 80.9646C193.11 81.8111 188.81 91.3906 188.81 91.3906L196.052 102.035C196.052 102.035 205.69 89.8988 204.55 86.186C203.36 82.3223 200.829 79.9338 196.596 80.9646Z" fill="#E4E5FA"/>
<path d="M164.262 114.413L158.22 111.622L157.616 117.632C157.616 117.632 162.661 119.115 165.151 117.598L164.262 114.422V114.413Z" fill="#FFA488"/>
<path d="M154.608 111.019L154.029 115.587L157.616 117.632L158.22 111.622L154.608 111.019Z" fill="#FFA488"/>
<path d="M224.178 56.4585C222.904 63.3058 222.502 66.2308 218.58 69.3485C212.68 74.0251 204.542 70.9577 203.754 63.8673C203.041 57.4809 205.246 47.3566 212.344 45.4458C219.334 43.56 225.461 49.6112 224.178 56.4585Z" fill="#FFA488"/>
<path d="M209.134 57.9C208.74 61.3949 208.59 70.4632 216.267 70.7481C225.67 71.1001 228.486 63.0627 227.648 59.8528C232.534 55.8718 233.247 49.0245 227.749 43.7863C222.251 38.5482 210.148 41.4732 206.771 46.5772C202.58 52.9049 209.143 57.8916 209.143 57.8916L209.134 57.9Z" fill="#263238"/>
<path d="M218.546 45.8313C218.094 42.152 218.446 39.6042 221.89 39.6042C225.335 39.6042 230.054 40.853 231.78 44.3814C233.506 47.9098 233.649 53.4329 228.83 52.8714C224.011 52.3098 219.091 50.2397 218.546 45.8229V45.8313Z" fill="#ABAEB6"/>
<path d="M223.893 44.9429C223.072 40.5512 226.986 28.1808 236.54 27.3763C240.966 27.0075 243.011 31.7679 240.697 32.5474C244.88 32.4971 247.57 38.0369 243.664 38.8667C246.757 40.8446 245.986 44.901 241.586 46.8957C238.342 48.3624 225.042 51.0192 223.902 44.9345L223.893 44.9429Z" fill="#263238"/>
<path d="M234.093 49.6614C231.017 49.6614 227.807 49.2089 225.813 47.8763C224.606 47.0633 223.944 45.9905 223.843 44.6831C223.835 44.5658 223.919 44.4652 224.036 44.4568C224.162 44.4484 224.254 44.5322 224.262 44.6496C224.354 45.8229 224.95 46.7867 226.047 47.5243C229.836 50.0637 238.602 49.2424 241.351 48.3456C243.715 47.5746 245.315 46.0827 245.634 44.3479C245.869 43.0739 245.366 41.8755 244.234 40.9535C244.142 40.8781 244.134 40.7524 244.201 40.6602C244.276 40.568 244.402 40.5596 244.494 40.6267C245.743 41.6324 246.304 43.0153 246.045 44.4233C245.701 46.309 243.991 47.9266 241.485 48.7395C240.044 49.2089 237.144 49.6531 234.093 49.6531V49.6614Z" fill="#263238"/>
<path d="M206.997 56.9781C206.159 58.1431 205.916 59.593 206.1 60.7579C206.377 62.518 208.095 62.6353 209.335 61.5039C210.45 60.4897 211.649 58.3526 210.735 56.8943C209.838 55.4611 207.961 55.6371 206.997 56.9697V56.9781Z" fill="#CC836D"/>
<path d="M207.475 123.339C207.475 123.339 211.548 171.522 215.772 198.676C219.183 220.61 221.882 271.876 221.882 271.876H231.453C231.453 271.876 234.856 222.143 233.121 200.445C228.738 145.549 238.519 141.082 228.453 123.331H207.467L207.475 123.339Z" fill="#263238"/>
<path opacity="0.4" d="M219.527 141.551C215.663 145.499 212.722 150.217 210.484 155.195C211.598 166.024 212.923 178.042 214.331 188.569C218.689 177.564 222.418 160.635 219.527 141.551Z" fill="#476270"/>
<path d="M200.779 123.037C200.779 123.037 191.937 175.662 190.546 199.38C194.015 221.314 208.213 267.677 208.213 267.677L216.921 264.526C216.921 264.526 212.102 213.972 206.838 200.135C218.63 160.434 227.296 150.402 224.774 123.348C218.756 123.348 200.779 123.046 200.779 123.046V123.037Z" fill="#263238"/>
<path d="M207.048 269.991L218.815 266.789L218.144 262.104L205.548 265.507L207.048 269.991Z" fill="#263238"/>
<path d="M220.575 272.069H232.769L233.406 267.786L220.508 267.351L220.575 272.069Z" fill="#263238"/>
<path d="M228.889 121.663L230.171 124.219C230.272 124.42 230.037 124.621 229.71 124.621H199.806C199.547 124.621 199.337 124.496 199.32 124.336L199.061 121.78C199.044 121.604 199.262 121.453 199.547 121.453H228.419C228.629 121.453 228.822 121.537 228.88 121.671L228.889 121.663Z" fill="#407BFF"/>
<path opacity="0.5" d="M228.889 121.663L230.171 124.219C230.272 124.42 230.037 124.621 229.71 124.621H199.806C199.547 124.621 199.337 124.496 199.32 124.336L199.061 121.78C199.044 121.604 199.262 121.453 199.547 121.453H228.419C228.629 121.453 228.822 121.537 228.88 121.671L228.889 121.663Z" fill="#263238"/>
<path d="M225.008 124.89H225.779C225.93 124.89 226.047 124.814 226.039 124.714L225.679 121.395C225.67 121.294 225.536 121.219 225.377 121.219H224.606C224.455 121.219 224.338 121.294 224.346 121.395L224.707 124.714C224.715 124.814 224.849 124.89 225.008 124.89Z" fill="#407BFF"/>
<path d="M214.633 100.467C214.44 100.467 214.281 100.342 214.23 100.157C211.498 90.0581 205.816 81.7441 203.1 80.4618C202.799 80.3193 202.547 80.2774 202.396 80.3444C202.187 80.4366 201.935 80.3444 201.843 80.1349C201.751 79.9254 201.843 79.6739 202.053 79.5817C202.447 79.4057 202.916 79.4477 203.461 79.7075C206.352 81.0736 212.085 89.287 214.951 99.6292C217.004 99.6041 220.172 99.3442 220.944 99.2856C221.899 98.1458 228.931 89.3624 226.299 79.7577C226.24 79.5315 226.366 79.3052 226.592 79.2465C226.81 79.1878 227.045 79.3136 227.104 79.5398C230.029 90.234 221.547 99.8806 221.455 99.9728C221.388 100.048 221.287 100.099 221.178 100.107C221.136 100.107 216.954 100.476 214.624 100.476L214.633 100.467Z" fill="#F2BBAE"/>
<path d="M228.511 106.393C223.943 97.8273 222.075 97.2322 221.262 94.4749C221.262 94.4749 221.999 92.3963 223.868 90.2927C223.307 90.1335 222.125 89.8988 221.379 89.7563C221.463 89.3792 221.547 89.0104 221.639 88.6584C221.019 88.4908 219.736 88.6584 219.082 88.7757L219.057 87.9293C219.057 87.9293 216.744 87.4683 215.806 87.7197C215.898 88.1053 215.99 88.5159 216.082 88.9266C215.269 89.0858 213.962 89.3456 213.35 89.5133C215.127 91.5163 215.772 93.6535 215.906 94.1815C213.442 98.4056 203.871 125.619 219.443 127.664C235.023 129.709 233.087 114.95 228.52 106.384L228.511 106.393Z" fill="#CC6A4C"/>
<path opacity="0.4" d="M228.511 106.393C223.943 97.8273 222.075 97.2322 221.262 94.4749C221.262 94.4749 221.999 92.3963 223.868 90.2927C223.307 90.1335 222.125 89.8988 221.379 89.7563C221.463 89.3792 221.547 89.0104 221.639 88.6584C221.019 88.4908 219.736 88.6584 219.082 88.7757L219.057 87.9293C219.057 87.9293 216.744 87.4683 215.806 87.7197C215.898 88.1053 215.99 88.5159 216.082 88.9266C215.269 89.0858 213.962 89.3456 213.35 89.5133C215.127 91.5163 215.772 93.6535 215.906 94.1815C213.442 98.4056 203.871 125.619 219.443 127.664C235.023 129.709 233.087 114.95 228.52 106.384L228.511 106.393Z" fill="#CC6A4C"/>
<path d="M215.328 93.3769C215.211 93.5864 215.227 94.3743 215.202 94.6844C215.177 94.9945 216.024 95.204 216.962 95.2962C217.901 95.3884 221.798 95.5392 221.672 95.1034C221.547 94.6676 221.865 94.0725 221.882 93.7038C221.899 93.335 220.331 93.3182 219.016 93.3685C217.7 93.4188 215.579 92.8992 215.311 93.3685L215.328 93.3769Z" fill="#CC6A4C"/>
<path d="M206.268 124.89H207.039C207.19 124.89 207.307 124.814 207.299 124.714L206.938 121.395C206.93 121.294 206.796 121.219 206.637 121.219H205.866C205.715 121.219 205.598 121.294 205.606 121.395L205.966 124.714C205.975 124.814 206.109 124.89 206.268 124.89Z" fill="#ABAEB6"/>
</g>
<defs>
<filter id="filter0_d_319_4304" x="0" y="0.14624" width="333" height="305.854" filterUnits="userSpaceOnUse" color-interpolation-filters="sRGB">
<feFlood flood-opacity="0" result="BackgroundImageFix"/>
<feColorMatrix in="SourceAlpha" type="matrix" values="0 0 0 0 0 0 0 0 0 0 0 0 0 0 0 0 0 0 127 0" result="hardAlpha"/>
<feOffset dy="4"/>
<feGaussianBlur stdDeviation="2"/>
<feComposite in2="hardAlpha" operator="out"/>
<feColorMatrix type="matrix" values="0 0 0 0 0 0 0 0 0 0 0 0 0 0 0 0 0 0 0.25 0"/>
<feBlend mode="normal" in2="BackgroundImageFix" result="effect1_dropShadow_319_4304"/>
<feBlend mode="normal" in="SourceGraphic" in2="effect1_dropShadow_319_4304" result="shape"/>
</filter>
</defs>
</svg>
